<?xml version="1.0" standalone="no"?>
<!DOCTYPE svg PUBLIC "-//W3C//DTD SVG 20010904//EN"
 "http://www.w3.org/TR/2001/REC-SVG-20010904/DTD/svg10.dtd">
<svg version="1.0" xmlns="http://www.w3.org/2000/svg"
 width="700.000000pt" height="700.000000pt" viewBox="0 0 700.000000 700.000000"
 preserveAspectRatio="xMidYMid meet">
<metadata>
Created by potrace 1.14, written by Peter Selinger 2001-2017
</metadata>
<g transform="translate(0.000000,700.000000) scale(0.100000,-0.100000)"
fill="#000000" stroke="none">
<path d="M2167 6564 c-1 -1 -31 -4 -67 -7 -282 -25 -539 -197 -683 -457 -37
-67 -80 -185 -93 -255 -4 -22 -8 -871 -9 -1886 -3 -1950 -3 -1905 41 -2044 86
-264 313 -486 579 -564 39 -11 84 -24 100 -28 17 -4 633 -8 1371 -9 1279 -2
1345 -1 1432 17 51 10 126 33 168 50 155 65 188 94 781 686 307 307 577 583
600 613 89 119 151 272 169 420 4 30 7 638 7 1350 0 977 -3 1315 -13 1375 -59
384 -377 688 -765 732 -40 4 -3612 11 -3618 7z m3644 -457 c58 -17 157 -78
196 -119 41 -43 92 -140 104 -197 16 -73 20 -2281 4 -2287 -5 -2 -278 -5 -605
-7 -327 -2 -608 -7 -625 -11 -258 -65 -466 -288 -501 -538 -4 -29 -8 -307 -9
-618 -2 -311 -3 -568 -4 -572 -2 -13 -2212 -10 -2273 3 -168 36 -302 170 -337
339 -9 41 -11 512 -9 1870 l3 1815 26 63 c62 146 195 252 337 270 32 4 863 7
1847 6 1649 0 1794 -1 1846 -17z m262 -3046 l28 -1 -33 -62 c-28 -52 -122
-152 -584 -613 -408 -408 -564 -557 -602 -577 -29 -16 -56 -28 -61 -28 -5 0
-9 233 -9 538 -1 590 1 610 57 670 44 45 88 66 156 72 46 4 907 5 1048 1z"/>
<path d="M135 5231 c-54 -24 -100 -72 -119 -123 -15 -39 -16 -199 -13 -1803 1
-968 6 -1773 10 -1790 4 -16 14 -68 23 -115 64 -335 265 -695 520 -929 62 -57
219 -181 229 -181 2 0 23 -13 47 -29 148 -99 440 -210 623 -236 23 -3 52 -8
65 -12 46 -13 2651 -15 2696 -2 186 51 213 310 41 401 l-42 23 -1255 1 c-690
1 -1287 4 -1326 8 -308 27 -588 159 -810 380 -133 133 -215 257 -296 445 -33
78 -76 261 -84 361 -4 52 -7 847 -7 1765 0 1394 -2 1677 -14 1710 -40 116
-178 176 -288 126z"/>
</g>
</svg>
